<mxfile host="Electron" modified="2023-09-07T11:47:26.499Z" agent="Mozilla/5.0 (Windows NT 10.0; Win64; x64) AppleWebKit/537.36 (KHTML, like Gecko) draw.io/21.6.8 Chrome/114.0.5735.289 Electron/25.5.0 Safari/537.36" etag="SZ2uCcVUNzP2kwQ3vRok" version="21.6.8" type="device">
  <diagram name="Page-1" id="Pl2QTMEOspP_K0_Kswkv">
    <mxGraphModel dx="1235" dy="731" grid="1" gridSize="10" guides="1" tooltips="1" connect="1" arrows="1" fold="1" page="1" pageScale="1" pageWidth="1600" pageHeight="900" math="0" shadow="0">
      <root>
        <mxCell id="0" />
        <mxCell id="1" parent="0" />
        <mxCell id="tD3GMnxs0qeQj0z21APh-43" value="" style="edgeStyle=orthogonalEdgeStyle;rounded=0;orthogonalLoop=1;jettySize=auto;html=1;exitX=0.5;exitY=1;exitDx=0;exitDy=0;endArrow=none;endFill=0;dashed=1;" edge="1" parent="1" source="tD3GMnxs0qeQj0z21APh-2">
          <mxGeometry relative="1" as="geometry">
            <mxPoint x="617.5" y="540" as="targetPoint" />
            <mxPoint x="620" y="70" as="sourcePoint" />
          </mxGeometry>
        </mxCell>
        <mxCell id="tD3GMnxs0qeQj0z21APh-47" value="" style="edgeStyle=orthogonalEdgeStyle;rounded=0;orthogonalLoop=1;jettySize=auto;html=1;endArrow=none;endFill=0;dashed=1;" edge="1" parent="1">
          <mxGeometry relative="1" as="geometry">
            <mxPoint x="617" y="656" as="targetPoint" />
            <mxPoint x="617" y="540" as="sourcePoint" />
            <Array as="points" />
          </mxGeometry>
        </mxCell>
        <mxCell id="tD3GMnxs0qeQj0z21APh-34" style="edgeStyle=orthogonalEdgeStyle;rounded=0;orthogonalLoop=1;jettySize=auto;html=1;dashed=1;endArrow=none;endFill=0;" edge="1" parent="1">
          <mxGeometry relative="1" as="geometry">
            <mxPoint x="125" y="890" as="targetPoint" />
            <mxPoint x="124.99999999999989" y="150" as="sourcePoint" />
          </mxGeometry>
        </mxCell>
        <mxCell id="tD3GMnxs0qeQj0z21APh-37" style="edgeStyle=orthogonalEdgeStyle;rounded=0;orthogonalLoop=1;jettySize=auto;html=1;endArrow=none;endFill=0;dashed=1;entryX=0.486;entryY=0.669;entryDx=0;entryDy=0;entryPerimeter=0;" edge="1" parent="1" target="tD3GMnxs0qeQj0z21APh-1">
          <mxGeometry relative="1" as="geometry">
            <mxPoint x="125" y="150" as="sourcePoint" />
          </mxGeometry>
        </mxCell>
        <mxCell id="tD3GMnxs0qeQj0z21APh-36" style="edgeStyle=orthogonalEdgeStyle;rounded=0;orthogonalLoop=1;jettySize=auto;html=1;dashed=1;endArrow=none;endFill=0;" edge="1" parent="1" source="tD3GMnxs0qeQj0z21APh-65">
          <mxGeometry relative="1" as="geometry">
            <mxPoint x="1070" y="890" as="targetPoint" />
            <Array as="points">
              <mxPoint x="1081" y="663" />
              <mxPoint x="1081" y="890" />
            </Array>
          </mxGeometry>
        </mxCell>
        <mxCell id="tD3GMnxs0qeQj0z21APh-35" style="edgeStyle=orthogonalEdgeStyle;rounded=0;orthogonalLoop=1;jettySize=auto;html=1;exitX=0.5;exitY=1;exitDx=0;exitDy=0;endArrow=none;endFill=0;dashed=1;" edge="1" parent="1">
          <mxGeometry relative="1" as="geometry">
            <mxPoint x="620.0909090909092" y="890" as="targetPoint" />
            <mxPoint x="617.5" y="574" as="sourcePoint" />
            <Array as="points">
              <mxPoint x="618" y="735" />
              <mxPoint x="618" y="735" />
              <mxPoint x="618" y="890" />
            </Array>
          </mxGeometry>
        </mxCell>
        <mxCell id="tD3GMnxs0qeQj0z21APh-1" value="User" style="shape=umlActor;verticalLabelPosition=bottom;verticalAlign=top;html=1;outlineConnect=0;" vertex="1" parent="1">
          <mxGeometry x="110" y="20" width="30" height="60" as="geometry" />
        </mxCell>
        <mxCell id="tD3GMnxs0qeQj0z21APh-2" value="Registration System" style="rounded=0;whiteSpace=wrap;html=1;" vertex="1" parent="1">
          <mxGeometry x="560" y="10" width="120" height="60" as="geometry" />
        </mxCell>
        <mxCell id="tD3GMnxs0qeQj0z21APh-3" value="Database" style="rounded=0;whiteSpace=wrap;html=1;" vertex="1" parent="1">
          <mxGeometry x="1021" y="20" width="120" height="60" as="geometry" />
        </mxCell>
        <mxCell id="tD3GMnxs0qeQj0z21APh-10" value="Initiate Registration" style="text;html=1;strokeColor=none;fillColor=none;align=center;verticalAlign=middle;whiteSpace=wrap;rounded=0;" vertex="1" parent="1">
          <mxGeometry x="300" y="100" width="110" height="30" as="geometry" />
        </mxCell>
        <mxCell id="tD3GMnxs0qeQj0z21APh-15" value="Submit Details" style="text;html=1;strokeColor=none;fillColor=none;align=center;verticalAlign=middle;whiteSpace=wrap;rounded=0;" vertex="1" parent="1">
          <mxGeometry x="300" y="266" width="110" height="30" as="geometry" />
        </mxCell>
        <mxCell id="tD3GMnxs0qeQj0z21APh-19" value="Check Username/Email" style="text;html=1;strokeColor=none;fillColor=none;align=center;verticalAlign=middle;whiteSpace=wrap;rounded=0;" vertex="1" parent="1">
          <mxGeometry x="787.5" y="360" width="120" height="30" as="geometry" />
        </mxCell>
        <mxCell id="tD3GMnxs0qeQj0z21APh-23" value="Result: Exists/Not" style="text;html=1;strokeColor=none;fillColor=none;align=center;verticalAlign=middle;whiteSpace=wrap;rounded=0;" vertex="1" parent="1">
          <mxGeometry x="790" y="447" width="120" height="30" as="geometry" />
        </mxCell>
        <mxCell id="tD3GMnxs0qeQj0z21APh-24" value="Alt" style="shape=umlFrame;whiteSpace=wrap;html=1;pointerEvents=0;recursiveResize=0;container=1;collapsible=0;width=160;" vertex="1" parent="1">
          <mxGeometry x="100" y="487" width="540" height="270" as="geometry" />
        </mxCell>
        <mxCell id="tD3GMnxs0qeQj0z21APh-53" style="edgeStyle=orthogonalEdgeStyle;rounded=0;orthogonalLoop=1;jettySize=auto;html=1;" edge="1" parent="tD3GMnxs0qeQj0z21APh-24">
          <mxGeometry relative="1" as="geometry">
            <mxPoint x="518" y="67" as="sourcePoint" />
            <mxPoint x="25" y="67" as="targetPoint" />
          </mxGeometry>
        </mxCell>
        <mxCell id="tD3GMnxs0qeQj0z21APh-54" value="Username/Email Taken" style="text;html=1;strokeColor=none;fillColor=none;align=center;verticalAlign=middle;whiteSpace=wrap;rounded=0;" vertex="1" parent="tD3GMnxs0qeQj0z21APh-24">
          <mxGeometry x="210" y="43" width="130" height="30" as="geometry" />
        </mxCell>
        <mxCell id="tD3GMnxs0qeQj0z21APh-55" value="" style="endArrow=none;html=1;rounded=0;edgeStyle=orthogonalEdgeStyle;entryX=1.001;entryY=0.594;entryDx=0;entryDy=0;entryPerimeter=0;" edge="1" parent="tD3GMnxs0qeQj0z21APh-24" target="tD3GMnxs0qeQj0z21APh-24">
          <mxGeometry width="50" height="50" relative="1" as="geometry">
            <mxPoint y="140" as="sourcePoint" />
            <mxPoint x="520" y="170" as="targetPoint" />
            <Array as="points">
              <mxPoint y="160" />
              <mxPoint x="539" y="160" />
            </Array>
          </mxGeometry>
        </mxCell>
        <mxCell id="tD3GMnxs0qeQj0z21APh-58" value="Username/Email Does Not Exis" style="text;html=1;strokeColor=none;fillColor=none;align=center;verticalAlign=middle;whiteSpace=wrap;rounded=0;" vertex="1" parent="tD3GMnxs0qeQj0z21APh-24">
          <mxGeometry y="160" width="190" height="30" as="geometry" />
        </mxCell>
        <mxCell id="tD3GMnxs0qeQj0z21APh-38" style="edgeStyle=orthogonalEdgeStyle;rounded=0;orthogonalLoop=1;jettySize=auto;html=1;" edge="1" parent="1">
          <mxGeometry relative="1" as="geometry">
            <mxPoint x="620" y="290" as="targetPoint" />
            <mxPoint x="125" y="290" as="sourcePoint" />
          </mxGeometry>
        </mxCell>
        <mxCell id="tD3GMnxs0qeQj0z21APh-32" value="" style="rounded=0;whiteSpace=wrap;html=1;" vertex="1" parent="1">
          <mxGeometry x="110" y="200" width="30" height="64" as="geometry" />
        </mxCell>
        <mxCell id="tD3GMnxs0qeQj0z21APh-41" style="edgeStyle=orthogonalEdgeStyle;rounded=0;orthogonalLoop=1;jettySize=auto;html=1;" edge="1" parent="1">
          <mxGeometry relative="1" as="geometry">
            <mxPoint x="1067.5" y="390" as="targetPoint" />
            <mxPoint x="627.5" y="389.9999999999999" as="sourcePoint" />
          </mxGeometry>
        </mxCell>
        <mxCell id="tD3GMnxs0qeQj0z21APh-44" style="edgeStyle=orthogonalEdgeStyle;rounded=0;orthogonalLoop=1;jettySize=auto;html=1;dashed=1;endArrow=none;endFill=0;startArrow=classic;startFill=1;" edge="1" parent="1">
          <mxGeometry relative="1" as="geometry">
            <mxPoint x="1078" y="472" as="targetPoint" />
            <mxPoint x="618" y="472" as="sourcePoint" />
          </mxGeometry>
        </mxCell>
        <mxCell id="tD3GMnxs0qeQj0z21APh-49" value="" style="endArrow=classic;html=1;rounded=0;edgeStyle=orthogonalEdgeStyle;" edge="1" parent="1">
          <mxGeometry width="50" height="50" relative="1" as="geometry">
            <mxPoint x="126" y="135" as="sourcePoint" />
            <mxPoint x="620" y="135" as="targetPoint" />
            <Array as="points" />
          </mxGeometry>
        </mxCell>
        <mxCell id="tD3GMnxs0qeQj0z21APh-51" value="" style="rounded=0;whiteSpace=wrap;html=1;" vertex="1" parent="1">
          <mxGeometry x="608.5" y="305" width="22.5" height="105" as="geometry" />
        </mxCell>
        <mxCell id="tD3GMnxs0qeQj0z21APh-59" value="Save User Data" style="text;html=1;strokeColor=none;fillColor=none;align=center;verticalAlign=middle;whiteSpace=wrap;rounded=0;" vertex="1" parent="1">
          <mxGeometry x="790" y="689" width="120" height="30" as="geometry" />
        </mxCell>
        <mxCell id="tD3GMnxs0qeQj0z21APh-60" value="" style="endArrow=none;html=1;rounded=0;" edge="1" parent="1">
          <mxGeometry width="50" height="50" relative="1" as="geometry">
            <mxPoint x="120" y="890" as="sourcePoint" />
            <mxPoint x="1161" y="890" as="targetPoint" />
          </mxGeometry>
        </mxCell>
        <mxCell id="tD3GMnxs0qeQj0z21APh-61" style="edgeStyle=orthogonalEdgeStyle;rounded=0;orthogonalLoop=1;jettySize=auto;html=1;exitX=1;exitY=0.25;exitDx=0;exitDy=0;entryX=1;entryY=0.75;entryDx=0;entryDy=0;" edge="1" parent="1" source="tD3GMnxs0qeQj0z21APh-32" target="tD3GMnxs0qeQj0z21APh-32">
          <mxGeometry relative="1" as="geometry">
            <Array as="points">
              <mxPoint x="170" y="216" />
              <mxPoint x="170" y="248" />
            </Array>
          </mxGeometry>
        </mxCell>
        <mxCell id="tD3GMnxs0qeQj0z21APh-62" value="User Inputs Data" style="text;html=1;strokeColor=none;fillColor=none;align=center;verticalAlign=middle;whiteSpace=wrap;rounded=0;" vertex="1" parent="1">
          <mxGeometry x="170" y="217" width="100" height="30" as="geometry" />
        </mxCell>
        <mxCell id="tD3GMnxs0qeQj0z21APh-63" style="edgeStyle=orthogonalEdgeStyle;rounded=0;orthogonalLoop=1;jettySize=auto;html=1;exitX=1;exitY=0.25;exitDx=0;exitDy=0;entryX=1;entryY=0.5;entryDx=0;entryDy=0;" edge="1" parent="1" source="tD3GMnxs0qeQj0z21APh-51" target="tD3GMnxs0qeQj0z21APh-51">
          <mxGeometry relative="1" as="geometry">
            <mxPoint x="640" y="350" as="targetPoint" />
            <Array as="points">
              <mxPoint x="631" y="330" />
              <mxPoint x="660" y="330" />
              <mxPoint x="660" y="358" />
            </Array>
          </mxGeometry>
        </mxCell>
        <mxCell id="tD3GMnxs0qeQj0z21APh-64" value="Processing and validating data" style="text;html=1;strokeColor=none;fillColor=none;align=center;verticalAlign=middle;whiteSpace=wrap;rounded=0;" vertex="1" parent="1">
          <mxGeometry x="660" y="330" width="110" height="30" as="geometry" />
        </mxCell>
        <mxCell id="tD3GMnxs0qeQj0z21APh-66" value="" style="edgeStyle=orthogonalEdgeStyle;rounded=0;orthogonalLoop=1;jettySize=auto;html=1;dashed=1;endArrow=none;endFill=0;" edge="1" parent="1" source="tD3GMnxs0qeQj0z21APh-3" target="tD3GMnxs0qeQj0z21APh-65">
          <mxGeometry relative="1" as="geometry">
            <mxPoint x="1070" y="890" as="targetPoint" />
            <mxPoint x="1070" y="80" as="sourcePoint" />
          </mxGeometry>
        </mxCell>
        <mxCell id="tD3GMnxs0qeQj0z21APh-65" value="" style="rounded=0;whiteSpace=wrap;html=1;" vertex="1" parent="1">
          <mxGeometry x="1070" y="330" width="22.5" height="150" as="geometry" />
        </mxCell>
        <mxCell id="tD3GMnxs0qeQj0z21APh-67" style="edgeStyle=orthogonalEdgeStyle;rounded=0;orthogonalLoop=1;jettySize=auto;html=1;exitX=1;exitY=0.5;exitDx=0;exitDy=0;entryX=1;entryY=0.75;entryDx=0;entryDy=0;" edge="1" parent="1" source="tD3GMnxs0qeQj0z21APh-65" target="tD3GMnxs0qeQj0z21APh-65">
          <mxGeometry relative="1" as="geometry">
            <Array as="points">
              <mxPoint x="1130" y="405" />
              <mxPoint x="1130" y="443" />
            </Array>
          </mxGeometry>
        </mxCell>
        <mxCell id="tD3GMnxs0qeQj0z21APh-68" value="search matching results" style="text;html=1;strokeColor=none;fillColor=none;align=center;verticalAlign=middle;whiteSpace=wrap;rounded=0;" vertex="1" parent="1">
          <mxGeometry x="1141" y="410" width="120" height="30" as="geometry" />
        </mxCell>
        <mxCell id="tD3GMnxs0qeQj0z21APh-69" style="edgeStyle=orthogonalEdgeStyle;rounded=0;orthogonalLoop=1;jettySize=auto;html=1;" edge="1" parent="1">
          <mxGeometry relative="1" as="geometry">
            <mxPoint x="1080" y="717" as="targetPoint" />
            <mxPoint x="618" y="717" as="sourcePoint" />
          </mxGeometry>
        </mxCell>
      </root>
    </mxGraphModel>
  </diagram>
</mxfile>
